<?xml version="1.0" encoding="UTF-8" standalone="no"?>
<!-- Created with Inkscape (http://www.inkscape.org/) -->

<svg
   width="77.93959mm"
   height="8.1919127mm"
   viewBox="0 0 77.93959 8.1919127"
   version="1.1"
   id="svg5"
   sodipodi:docname="logo-dark.svg"
   inkscape:version="1.1 (c68e22c387, 2021-05-23)"
   xmlns:inkscape="http://www.inkscape.org/namespaces/inkscape"
   xmlns:sodipodi="http://sodipodi.sourceforge.net/DTD/sodipodi-0.dtd"
   xmlns:xlink="http://www.w3.org/1999/xlink"
   xmlns="http://www.w3.org/2000/svg"
   xmlns:svg="http://www.w3.org/2000/svg">
  <sodipodi:namedview
     id="namedview7"
     pagecolor="#ffffff"
     bordercolor="#666666"
     borderopacity="1.0"
     inkscape:pageshadow="2"
     inkscape:pageopacity="0"
     inkscape:pagecheckerboard="0"
     inkscape:document-units="mm"
     showgrid="false"
     inkscape:zoom="16.677328"
     inkscape:cx="26.139732"
     inkscape:cy="20.020439"
     inkscape:window-width="2560"
     inkscape:window-height="1377"
     inkscape:window-x="-8"
     inkscape:window-y="-8"
     inkscape:window-maximized="1"
     inkscape:current-layer="text1615"
     fit-margin-top="0"
     fit-margin-left="0"
     fit-margin-right="0"
     fit-margin-bottom="0" />
  <defs
     id="defs2">
    <linearGradient
       inkscape:collect="always"
       id="linearGradient33924">
      <stop
         style="stop-color:#000000;stop-opacity:1"
         offset="0"
         id="stop33920" />
      <stop
         style="stop-color:#b688ed;stop-opacity:1"
         offset="1"
         id="stop33922" />
    </linearGradient>
    <linearGradient
       inkscape:collect="always"
       id="linearGradient33918">
      <stop
         style="stop-color:#000000;stop-opacity:1"
         offset="0"
         id="stop33914" />
      <stop
         style="stop-color:#b688ed;stop-opacity:1"
         offset="1"
         id="stop33916" />
    </linearGradient>
    <linearGradient
       inkscape:collect="always"
       id="linearGradient33912">
      <stop
         style="stop-color:#000000;stop-opacity:1"
         offset="0"
         id="stop33908" />
      <stop
         style="stop-color:#b688ed;stop-opacity:1"
         offset="1"
         id="stop33910" />
    </linearGradient>
    <linearGradient
       inkscape:collect="always"
       id="linearGradient33906">
      <stop
         style="stop-color:#000000;stop-opacity:1"
         offset="0"
         id="stop33902" />
      <stop
         style="stop-color:#b688ed;stop-opacity:1"
         offset="1"
         id="stop33904" />
    </linearGradient>
    <linearGradient
       inkscape:collect="always"
       id="linearGradient33900">
      <stop
         style="stop-color:#000000;stop-opacity:1"
         offset="0"
         id="stop33896" />
      <stop
         style="stop-color:#b688ed;stop-opacity:1"
         offset="1"
         id="stop33898" />
    </linearGradient>
    <linearGradient
       inkscape:collect="always"
       id="linearGradient33894">
      <stop
         style="stop-color:#000000;stop-opacity:1"
         offset="0"
         id="stop33890" />
      <stop
         style="stop-color:#b688ed;stop-opacity:1"
         offset="1"
         id="stop33892" />
    </linearGradient>
    <linearGradient
       inkscape:collect="always"
       id="linearGradient33888">
      <stop
         style="stop-color:#000000;stop-opacity:1"
         offset="0"
         id="stop33884" />
      <stop
         style="stop-color:#b688ed;stop-opacity:1"
         offset="1"
         id="stop33886" />
    </linearGradient>
    <linearGradient
       inkscape:collect="always"
       id="linearGradient33882">
      <stop
         style="stop-color:#000000;stop-opacity:1"
         offset="0"
         id="stop33878" />
      <stop
         style="stop-color:#b688ed;stop-opacity:1"
         offset="1"
         id="stop33880" />
    </linearGradient>
    <linearGradient
       inkscape:collect="always"
       id="linearGradient33876">
      <stop
         style="stop-color:#000000;stop-opacity:1"
         offset="0"
         id="stop33872" />
      <stop
         style="stop-color:#b688ed;stop-opacity:1"
         offset="1"
         id="stop33874" />
    </linearGradient>
    <linearGradient
       inkscape:collect="always"
       id="linearGradient33870">
      <stop
         style="stop-color:#000000;stop-opacity:1"
         offset="0"
         id="stop33866" />
      <stop
         style="stop-color:#b688ed;stop-opacity:1"
         offset="1"
         id="stop33868" />
    </linearGradient>
    <linearGradient
       inkscape:collect="always"
       id="linearGradient25765">
      <stop
         style="stop-color:#ff9a13;stop-opacity:1"
         offset="0"
         id="stop25761" />
      <stop
         style="stop-color:#ffff8d;stop-opacity:0"
         offset="1"
         id="stop25763" />
    </linearGradient>
    <linearGradient
       inkscape:collect="always"
       id="linearGradient25759">
      <stop
         style="stop-color:#ff9a13;stop-opacity:1"
         offset="0"
         id="stop25755" />
      <stop
         style="stop-color:#ffff8d;stop-opacity:0"
         offset="1"
         id="stop25757" />
    </linearGradient>
    <linearGradient
       inkscape:collect="always"
       id="linearGradient25753">
      <stop
         style="stop-color:#ff9a13;stop-opacity:1"
         offset="0"
         id="stop25749" />
      <stop
         style="stop-color:#ffff8d;stop-opacity:0"
         offset="1"
         id="stop25751" />
    </linearGradient>
    <linearGradient
       inkscape:collect="always"
       id="linearGradient25747">
      <stop
         style="stop-color:#ff9a13;stop-opacity:1"
         offset="0"
         id="stop25743" />
      <stop
         style="stop-color:#ffff8d;stop-opacity:0"
         offset="1"
         id="stop25745" />
    </linearGradient>
    <linearGradient
       inkscape:collect="always"
       id="linearGradient25741">
      <stop
         style="stop-color:#ff9a13;stop-opacity:1"
         offset="0"
         id="stop25737" />
      <stop
         style="stop-color:#ffff8d;stop-opacity:0"
         offset="1"
         id="stop25739" />
    </linearGradient>
    <linearGradient
       inkscape:collect="always"
       id="linearGradient25735">
      <stop
         style="stop-color:#ff9a13;stop-opacity:1"
         offset="0"
         id="stop25731" />
      <stop
         style="stop-color:#ffff8d;stop-opacity:0"
         offset="1"
         id="stop25733" />
    </linearGradient>
    <linearGradient
       inkscape:collect="always"
       id="linearGradient25729">
      <stop
         style="stop-color:#ff9a13;stop-opacity:1"
         offset="0"
         id="stop25725" />
      <stop
         style="stop-color:#ffff8d;stop-opacity:0"
         offset="1"
         id="stop25727" />
    </linearGradient>
    <linearGradient
       inkscape:collect="always"
       id="linearGradient25723">
      <stop
         style="stop-color:#ff9a13;stop-opacity:1"
         offset="0"
         id="stop25719" />
      <stop
         style="stop-color:#ffff8d;stop-opacity:0"
         offset="1"
         id="stop25721" />
    </linearGradient>
    <linearGradient
       inkscape:collect="always"
       id="linearGradient25717">
      <stop
         style="stop-color:#ff9a13;stop-opacity:1"
         offset="0"
         id="stop25713" />
      <stop
         style="stop-color:#ffff8d;stop-opacity:0"
         offset="1"
         id="stop25715" />
    </linearGradient>
    <linearGradient
       inkscape:collect="always"
       id="linearGradient24171">
      <stop
         style="stop-color:#ff9a13;stop-opacity:1"
         offset="0"
         id="stop24167" />
      <stop
         style="stop-color:#ffff8d;stop-opacity:0"
         offset="1"
         id="stop24169" />
    </linearGradient>
    <inkscape:path-effect
       effect="envelope"
       id="path-effect22293"
       is_visible="true"
       lpeversion="1"
       yy="true"
       xx="true"
       bendpath1="M 58.789061,283.77273 H 351.48437"
       bendpath2="m 351.48437,283.77273 v 29.08203"
       bendpath3="M 58.789061,312.85476 H 351.48437"
       bendpath4="m 58.789061,283.77273 v 29.08203" />
    <rect
       x="55.157009"
       y="278.76651"
       width="682.75433"
       height="335.41425"
       id="rect1617" />
    <linearGradient
       inkscape:collect="always"
       xlink:href="#linearGradient25753"
       id="linearGradient28731"
       gradientUnits="userSpaceOnUse"
       x1="175.07793"
       y1="283.48895"
       x2="175.07793"
       y2="312.57098"
       gradientTransform="translate(17.413529,83.596914)" />
    <linearGradient
       inkscape:collect="always"
       xlink:href="#linearGradient25759"
       id="linearGradient28733"
       gradientUnits="userSpaceOnUse"
       x1="205.98613"
       y1="283.48895"
       x2="205.98613"
       y2="312.57098"
       gradientTransform="translate(17.413529,83.596914)" />
    <linearGradient
       inkscape:collect="always"
       xlink:href="#linearGradient25741"
       id="linearGradient28735"
       gradientUnits="userSpaceOnUse"
       x1="233.25175"
       y1="283.48895"
       x2="233.25175"
       y2="312.57098"
       gradientTransform="translate(17.413529,83.596914)" />
    <linearGradient
       inkscape:collect="always"
       xlink:href="#linearGradient25765"
       id="linearGradient28737"
       gradientUnits="userSpaceOnUse"
       x1="264.15997"
       y1="283.48895"
       x2="264.15994"
       y2="312.57098"
       gradientTransform="translate(17.413529,83.596914)" />
    <linearGradient
       inkscape:collect="always"
       xlink:href="#linearGradient25735"
       id="linearGradient28739"
       gradientUnits="userSpaceOnUse"
       x1="295.06815"
       y1="283.48895"
       x2="295.06815"
       y2="312.57098"
       gradientTransform="translate(17.413529,83.596914)" />
    <linearGradient
       inkscape:collect="always"
       xlink:href="#linearGradient24171"
       id="linearGradient28741"
       gradientUnits="userSpaceOnUse"
       x1="325.97638"
       y1="283.48895"
       x2="325.97638"
       y2="312.57098"
       gradientTransform="translate(17.413529,83.596914)" />
    <linearGradient
       inkscape:collect="always"
       xlink:href="#linearGradient33924"
       id="linearGradient32135"
       gradientUnits="userSpaceOnUse"
       gradientTransform="translate(-2.6790183,67.397446)"
       x1="325.97638"
       y1="283.48895"
       x2="325.97638"
       y2="312.57098" />
    <linearGradient
       inkscape:collect="always"
       xlink:href="#linearGradient33918"
       id="linearGradient32137"
       gradientUnits="userSpaceOnUse"
       gradientTransform="translate(-2.6790183,67.397446)"
       x1="295.06815"
       y1="283.48895"
       x2="295.06815"
       y2="312.57098" />
    <linearGradient
       inkscape:collect="always"
       xlink:href="#linearGradient33906"
       id="linearGradient32139"
       gradientUnits="userSpaceOnUse"
       gradientTransform="translate(-2.6790183,67.397446)"
       x1="264.15997"
       y1="283.48895"
       x2="264.15994"
       y2="312.57098" />
    <linearGradient
       inkscape:collect="always"
       xlink:href="#linearGradient33912"
       id="linearGradient32141"
       gradientUnits="userSpaceOnUse"
       gradientTransform="translate(-2.6790214,67.39745)"
       x1="233.25175"
       y1="283.48895"
       x2="233.25175"
       y2="312.57098" />
    <linearGradient
       inkscape:collect="always"
       xlink:href="#linearGradient33900"
       id="linearGradient32143"
       gradientUnits="userSpaceOnUse"
       gradientTransform="translate(-2.6790183,67.397446)"
       x1="205.98613"
       y1="283.48895"
       x2="205.98613"
       y2="312.57098" />
    <linearGradient
       inkscape:collect="always"
       xlink:href="#linearGradient33894"
       id="linearGradient32145"
       gradientUnits="userSpaceOnUse"
       gradientTransform="translate(-2.6790183,67.397446)"
       x1="175.07793"
       y1="283.48895"
       x2="175.07793"
       y2="312.57098" />
    <linearGradient
       inkscape:collect="always"
       xlink:href="#linearGradient33882"
       id="linearGradient32147"
       gradientUnits="userSpaceOnUse"
       gradientTransform="translate(-2.6790183,67.397446)"
       x1="147.8123"
       y1="283.48895"
       x2="147.8123"
       y2="312.57098" />
    <linearGradient
       inkscape:collect="always"
       xlink:href="#linearGradient33888"
       id="linearGradient32149"
       gradientUnits="userSpaceOnUse"
       gradientTransform="translate(-2.6790183,67.397446)"
       x1="124.17949"
       y1="283.48895"
       x2="124.17949"
       y2="312.57098" />
    <linearGradient
       inkscape:collect="always"
       xlink:href="#linearGradient33876"
       id="linearGradient32151"
       gradientUnits="userSpaceOnUse"
       gradientTransform="translate(-2.6790183,67.397446)"
       x1="89.638474"
       y1="283.48895"
       x2="89.638474"
       y2="312.57098" />
    <linearGradient
       inkscape:collect="always"
       xlink:href="#linearGradient33870"
       id="linearGradient32153"
       gradientUnits="userSpaceOnUse"
       gradientTransform="translate(-2.6790033,67.397446)"
       x1="58.73027"
       y1="283.48895"
       x2="58.73027"
       y2="312.57098" />
    <linearGradient
       inkscape:collect="always"
       xlink:href="#linearGradient24171"
       id="linearGradient32155"
       gradientUnits="userSpaceOnUse"
       gradientTransform="translate(0,-6.75756)"
       x1="325.97638"
       y1="283.48895"
       x2="325.97638"
       y2="312.57098" />
    <linearGradient
       inkscape:collect="always"
       xlink:href="#linearGradient25735"
       id="linearGradient32157"
       gradientUnits="userSpaceOnUse"
       gradientTransform="translate(0,-6.75756)"
       x1="295.06815"
       y1="283.48895"
       x2="295.06815"
       y2="312.57098" />
    <linearGradient
       inkscape:collect="always"
       xlink:href="#linearGradient25765"
       id="linearGradient32159"
       gradientUnits="userSpaceOnUse"
       gradientTransform="translate(0,-6.75756)"
       x1="264.15997"
       y1="283.48895"
       x2="264.15994"
       y2="312.57098" />
    <linearGradient
       inkscape:collect="always"
       xlink:href="#linearGradient25741"
       id="linearGradient32161"
       gradientUnits="userSpaceOnUse"
       gradientTransform="translate(0,-6.75756)"
       x1="233.25175"
       y1="283.48895"
       x2="233.25175"
       y2="312.57098" />
    <linearGradient
       inkscape:collect="always"
       xlink:href="#linearGradient25759"
       id="linearGradient32163"
       gradientUnits="userSpaceOnUse"
       gradientTransform="translate(0,-6.75756)"
       x1="205.98613"
       y1="283.48895"
       x2="205.98613"
       y2="312.57098" />
    <linearGradient
       inkscape:collect="always"
       xlink:href="#linearGradient25753"
       id="linearGradient32165"
       gradientUnits="userSpaceOnUse"
       gradientTransform="translate(0,-6.75756)"
       x1="175.07793"
       y1="283.48895"
       x2="175.07793"
       y2="312.57098" />
    <linearGradient
       inkscape:collect="always"
       xlink:href="#linearGradient25747"
       id="linearGradient32167"
       gradientUnits="userSpaceOnUse"
       gradientTransform="translate(0,-6.75756)"
       x1="147.8123"
       y1="283.48895"
       x2="147.8123"
       y2="312.57098" />
    <linearGradient
       inkscape:collect="always"
       xlink:href="#linearGradient25729"
       id="linearGradient32169"
       gradientUnits="userSpaceOnUse"
       gradientTransform="translate(0,-6.75756)"
       x1="124.17949"
       y1="283.48895"
       x2="124.17949"
       y2="312.57098" />
    <linearGradient
       inkscape:collect="always"
       xlink:href="#linearGradient25717"
       id="linearGradient32171"
       gradientUnits="userSpaceOnUse"
       gradientTransform="translate(0,-6.75756)"
       x1="89.638474"
       y1="283.48895"
       x2="89.638474"
       y2="312.57098" />
    <linearGradient
       inkscape:collect="always"
       xlink:href="#linearGradient25723"
       id="linearGradient32173"
       gradientUnits="userSpaceOnUse"
       gradientTransform="translate(0,-6.75756)"
       x1="58.73027"
       y1="283.48895"
       x2="58.73027"
       y2="312.57098" />
  </defs>
  <g
     inkscape:label="Taso 1"
     inkscape:groupmode="layer"
     id="layer1"
     transform="translate(-14.581637,-92.589798)">
    <g
       aria-label="DIGIFINDER"
       transform="scale(0.26458333)"
       id="text1615"
       style="font-size:40px;line-height:1.25;font-family:'Retro Gaming';-inkscape-font-specification:'Retro Gaming, Normal';white-space:pre;shape-inside:url(#rect1617);fill:#00112b;fill-opacity:1">
      <g
         id="g31941"
         transform="translate(-2.6790031,74.154994)">
        <path
           style="color:#000000;-inkscape-font-specification:'Retro Gaming, Normal';fill:url(#linearGradient32173);stroke-width:0.5;-inkscape-stroke:none"
           d="m 73.271288,302.18061 c 0,-1.21094 0,-2.42188 0,-3.63282 1.214193,0 2.428385,0 3.642578,0 0,-4.85026 0,-9.70052 0,-14.55078 0,0 -3.642578,0 -3.642578,0 0,-1.21093 0,-2.42187 0,-3.63281 -2.421875,0 -4.84375,0 -7.265625,0 0,7.27214 0,14.54428 0,21.81641 0,0 7.265625,0 7.265625,0 z m -14.541016,3.63281 c 0,-9.69401 0,-19.38802 0,-29.08202 6.061198,0 12.122396,0 18.183594,0 0,1.21093 0,2.42187 0,3.6328 1.210938,0 2.421875,1e-5 3.632813,1e-5 0,1.21093 0,2.42187 0,3.6328 1.210937,0 2.421875,0 3.632812,0 0,4.85026 0,9.70052 0,14.55078 -1.210937,0 -2.421875,0 -3.632812,0 0,1.21094 0,2.42188 0,3.63282 -1.210938,0 -2.421875,0 -3.632813,0 0,1.21094 0,2.42188 0,3.63281 -6.061198,0 -12.122396,0 -18.183594,0 z"
           id="path31937" />
        <path
           style="color:#000000;-inkscape-font-specification:'Retro Gaming, Normal';fill:#c8d3ea;stroke:#ffffff;stroke-width:1.37953;stroke-miterlimit:4;stroke-dasharray:none;stroke-opacity:1"
           d="m 58.480469,276.48047 v 29.58203 h 0.25 18.433593 v -3.63281 h 3.632813 v -3.63282 h 3.632812 v -15.05078 h -3.632812 v -3.63281 h -0.25 c -1.127602,0 -2.255208,0 -3.382813,0 v -3.63281 z m 0.5,0.5 h 17.683593 v 3.63281 h 0.25 c 1.127603,0 2.255209,0 3.382813,0 v 3.63281 h 3.632812 v 14.05078 h -3.632812 v 3.63282 h -3.632813 v 3.63281 H 58.980469 Z m 6.77539,3.13281 v 22.31641 h 7.765625 v -0.25 -3.38282 h 3.642578 v -15.05078 h -3.642578 v -3.63281 z m 0.5,0.5 h 6.765625 v 3.63281 h 3.642578 v 14.05078 h -3.642578 v 3.63282 h -6.765625 z"
           id="path31939" />
      </g>
      <g
         id="g31947"
         transform="translate(-2.6790031,74.154994)">
        <path
           style="color:#000000;-inkscape-font-specification:'Retro Gaming, Normal';fill:url(#linearGradient32171);stroke-width:0.5;-inkscape-stroke:none"
           d="m 89.638476,305.81342 c 0,-1.21093 0,-2.42187 0,-3.63281 2.42513,0 4.85026,0 7.27539,0 0,-7.27213 0,-14.54427 0,-21.8164 -2.42513,0 -4.85026,0 -7.27539,0 0,-1.21094 0,-2.42188 0,-3.63281 0,0 21.816404,0 21.816404,0 0,1.21093 0,2.42187 0,3.63281 -2.42513,0 -4.85026,0 -7.27539,0 0,7.27213 0,14.54427 0,21.8164 2.42513,0 4.85026,0 7.27539,0 0,1.21094 0,2.42188 0,3.63281 -7.27214,0 -14.54427,0 -21.816404,0 z"
           id="path31943" />
        <path
           style="color:#000000;-inkscape-font-specification:'Retro Gaming, Normal';fill:#c8d3ea;stroke:#ffffff;stroke-width:1.37953;stroke-miterlimit:4;stroke-dasharray:none;stroke-opacity:1"
           d="m 89.388672,276.48047 v 4.13281 h 7.27539 v 21.31641 h -7.27539 v 4.13281 h 0.25 22.066408 v -4.13281 h -7.27539 v -21.31641 h 7.27539 v -4.13281 z m 0.5,0.5 h 21.316408 v 3.13281 h -7.27539 v 22.31641 h 7.27539 v 3.13281 H 89.888672 v -3.13281 h 7.27539 v -22.31641 h -7.27539 z"
           id="path31945" />
      </g>
      <g
         id="g31953"
         transform="translate(-2.6790031,74.154994)">
        <path
           style="color:#000000;-inkscape-font-specification:'Retro Gaming, Normal';fill:url(#linearGradient32169);stroke-width:0.5;-inkscape-stroke:none"
           d="m 124.17949,305.81342 c 0,-1.21093 0,-2.42187 0,-3.63281 0,0 -3.64258,0 -3.64258,0 0,-1.21094 0,-2.42188 0,-3.63282 -1.21094,0 -2.42187,0 -3.63281,0 0,-4.85026 0,-9.70052 0,-14.55078 1.21094,0 2.42187,0 3.63281,0 0,-1.21093 0,-2.42187 0,-3.6328 0,0 3.64258,0 3.64258,0 0,-1.21094 0,-2.42188 0,-3.63281 4.84701,0 9.69401,0 14.54102,0 0,1.21093 0,2.42187 0,3.63281 1.21094,0 2.42187,0 3.63281,0 0,1.21093 0,2.42187 0,3.63281 -2.42188,0 -4.84375,0 -7.26563,0 0,-1.21094 0,-2.42188 0,-3.63281 -2.42513,0 -4.85026,0 -7.27539,0 0,1.21093 0,2.42187 0,3.6328 -1.21094,0 -2.42187,0 -3.63281,0 0,4.85026 0,9.70052 0,14.55078 1.21094,0 2.42187,0 3.63281,0 0,1.21094 0,2.42188 0,3.63282 2.42513,0 4.85026,0 7.27539,0 0,-3.0306 0,-6.0612 0,-9.0918 -2.42513,0 -4.85026,0 -7.27539,0 0,-1.21093 0,-2.42187 0,-3.63281 4.84701,0 9.69401,0 14.54102,0 0,5.45248 0,10.90495 0,16.35742 -6.05794,0 -12.11589,0 -18.17383,0 z"
           id="path31949" />
        <path
           style="color:#000000;-inkscape-font-specification:'Retro Gaming, Normal';fill:#c8d3ea;stroke:#ffffff;stroke-width:1.37953;stroke-miterlimit:4;stroke-dasharray:none;stroke-opacity:1"
           d="m 123.92969,276.48047 v 3.63281 h -3.64258 v 3.63281 h -3.63281 v 15.05078 h 3.63281 v 3.63282 h 3.64258 v 3.63281 h 0.25 18.42383 V 289.20508 H 127.5625 v 4.13281 h 7.27539 v 8.5918 h -6.77539 v -3.63282 h -3.63281 v -14.05078 h 3.63281 v -3.63281 h 6.77539 v 3.63281 h 7.76563 v -4.13281 h -3.63282 v -3.63281 z m 0.5,0.5 h 14.04101 v 3.63281 h 3.63282 v 3.13281 h -6.76563 v -3.63281 h -7.77539 v 3.63281 h -3.63281 v 15.05078 h 3.63281 v 3.63282 h 7.77539 v -9.5918 h -7.27539 v -3.13281 h 14.04102 v 15.85742 h -17.67383 v -3.63281 h -3.64258 v -3.63282 h -3.63281 v -14.05078 h 3.63281 v -3.63281 h 3.64258 z"
           id="path31951" />
      </g>
      <g
         id="g31959"
         transform="translate(-2.6790031,74.154994)">
        <path
           style="color:#000000;-inkscape-font-specification:'Retro Gaming, Normal';fill:url(#linearGradient32167);stroke-width:0.5;-inkscape-stroke:none"
           d="m 147.8123,305.81342 c 0,-1.21093 0,-2.42187 0,-3.63281 2.42513,0 4.85026,0 7.27539,0 0,-7.27213 0,-14.54427 0,-21.8164 -2.42513,0 -4.85026,0 -7.27539,0 0,-1.21094 0,-2.42188 0,-3.63281 7.27214,0 14.54427,0 21.81641,0 0,1.21093 0,2.42187 0,3.63281 -2.42513,0 -4.85026,0 -7.27539,0 0,7.27213 0,14.54427 0,21.8164 2.42513,0 4.85026,0 7.27539,0 0,1.21094 0,2.42188 0,3.63281 -7.27214,0 -14.54427,0 -21.81641,0 z"
           id="path31955" />
        <path
           style="color:#000000;-inkscape-font-specification:'Retro Gaming, Normal';fill:#c8d3ea;stroke:#ffffff;stroke-width:1.37953;stroke-miterlimit:4;stroke-dasharray:none;stroke-opacity:1"
           d="m 147.5625,276.48047 v 4.13281 h 7.27539 v 21.31641 h -7.27539 v 4.13281 h 0.25 22.06641 v -4.13281 h -7.27539 v -21.31641 h 7.27539 v -4.13281 z m 0.5,0.5 h 21.31641 v 3.13281 h -7.27539 v 22.31641 h 7.27539 v 3.13281 H 148.0625 v -3.13281 h 7.27539 v -22.31641 h -7.27539 z"
           id="path31957" />
      </g>
      <g
         id="g31965"
         transform="translate(-2.6790031,74.154994)">
        <path
           style="color:#000000;-inkscape-font-specification:'Retro Gaming, Normal';fill:url(#linearGradient32165);stroke-width:0.5;-inkscape-stroke:none"
           d="m 175.07793,305.81342 c 0,-9.69401 0,-19.38802 0,-29.08202 0,0 25.44922,0 25.44922,0 0,1.21093 0,2.42187 0,3.63281 -6.05794,0 -12.11589,0 -18.17383,0 0,2.42513 0,4.85026 0,7.27538 3.63607,0 7.27213,0 10.9082,0 0,1.21094 0,2.42188 0,3.63281 -3.63607,0 -7.27213,0 -10.9082,0 0,4.84701 0,9.69402 0,14.54102 0,0 -7.27539,0 -7.27539,0 z"
           id="path31961" />
        <path
           style="color:#000000;-inkscape-font-specification:'Retro Gaming, Normal';fill:#c8d3ea;stroke:#ffffff;stroke-width:1.37953;stroke-miterlimit:4;stroke-dasharray:none;stroke-opacity:1"
           d="m 174.82812,276.48047 v 29.58203 h 0.25 7.5254 v -14.54102 h 10.9082 v -4.13281 h -10.9082 v -6.77539 h 18.17382 v -4.13281 z m 0.5,0.5 h 24.94922 v 3.13281 h -18.17382 v 7.77539 h 10.9082 v 3.13281 h -10.9082 v 14.54102 h -6.7754 z"
           id="path31963" />
      </g>
      <g
         id="g31971"
         transform="translate(-2.6790031,74.154994)">
        <path
           style="color:#000000;-inkscape-font-specification:'Retro Gaming, Normal';fill:url(#linearGradient32163);stroke-width:0.5;-inkscape-stroke:none"
           d="m 205.98613,305.81342 c 0,-1.21093 0,-2.42187 0,-3.63281 2.42513,0 4.85026,0 7.27539,0 0,-7.27213 0,-14.54427 0,-21.8164 -2.42513,0 -4.85026,0 -7.27539,0 0,-1.21094 0,-2.42188 0,-3.63281 0,0 21.81641,0 21.81641,0 0,1.21093 0,2.42187 0,3.63281 -2.42513,0 -4.85026,0 -7.27539,0 0,7.27213 0,14.54427 0,21.8164 2.42513,0 4.85026,0 7.27539,0 0,1.21094 0,2.42188 0,3.63281 -7.27214,0 -14.54428,0 -21.81641,0 z"
           id="path31967" />
        <path
           style="color:#000000;-inkscape-font-specification:'Retro Gaming, Normal';fill:#c8d3ea;stroke:#ffffff;stroke-width:1.37953;stroke-miterlimit:4;stroke-dasharray:none;stroke-opacity:1"
           d="m 205.73633,276.48047 v 4.13281 h 7.27539 v 21.31641 h -7.27539 v 4.13281 h 0.25 22.0664 v -4.13281 h -7.27539 v -21.31641 h 7.27539 v -4.13281 z m 0.5,0.5 h 21.3164 v 3.13281 h -7.27539 v 22.31641 h 7.27539 v 3.13281 h -21.3164 v -3.13281 h 7.27539 v -22.31641 h -7.27539 z"
           id="path31969" />
      </g>
      <g
         id="g31977"
         transform="translate(-2.6790031,74.154994)">
        <path
           style="color:#000000;-inkscape-font-specification:'Retro Gaming, Normal';fill:url(#linearGradient32161);stroke-width:0.5;-inkscape-stroke:none"
           d="m 233.25176,305.81342 c 0,-9.69401 0,-19.38802 0,-29.08202 1.21094,0 2.42187,0 3.63281,0 0,1.21093 0,2.42187 0,3.63281 1.21419,0 2.42839,0 3.64258,0 0,1.21093 0,2.42187 0,3.63281 1.21094,0 2.42187,0 3.63281,0 0,1.21419 0,2.42838 0,3.64257 1.21094,0 2.42187,0 3.63281,0 0,1.21094 0,2.42188 0,3.63281 1.21419,0 2.42839,0 3.64258,0 0,-4.847 0,-9.694 0,-14.541 2.42188,0 4.84375,0 7.26563,0 0,9.694 0,19.38801 0,29.08202 0,0 -3.63282,0 -3.63282,0 0,-1.21093 0,-2.42187 0,-3.63281 -1.21094,0 -2.42188,0 -3.63281,0 0,-1.21094 0,-2.42188 0,-3.63282 -1.2142,0 -2.42839,0 -3.64258,0 0,-1.21419 0,-2.42838 0,-3.64258 -1.21094,0 -2.42187,0 -3.63281,0 0,-1.21093 0,-2.42187 0,-3.63281 -1.21094,0 -2.42187,0 -3.63281,0 0,4.84701 0,9.69402 0,14.54102 -2.42513,0 -4.85026,0 -7.27539,0 z"
           id="path31973" />
        <path
           style="color:#000000;-inkscape-font-specification:'Retro Gaming, Normal';fill:#c8d3ea;stroke:#ffffff;stroke-width:1.37953;stroke-miterlimit:4;stroke-dasharray:none;stroke-opacity:1"
           d="m 233.00195,276.48047 v 29.58203 h 0.25 7.52539 v -14.54102 h 3.13282 v 3.63282 h 3.63281 v 3.64257 h 3.64258 v 3.63282 h 3.63281 v 3.63281 h 4.13281 v -29.58203 h -7.76562 v 14.54101 h -3.14258 v -3.63281 h -3.63281 v -3.64258 h -3.63282 v -3.63281 h -3.64257 v -3.63281 z m 0.5,0.5 h 3.13282 v 3.63281 h 3.64257 v 3.63281 h 3.63282 v 3.64258 h 3.63281 v 3.63281 h 4.14258 v -14.54101 h 6.76562 v 28.58203 h -3.13281 v -3.63281 h -3.63281 v -3.63282 h -3.64258 v -3.64257 h -3.63281 v -3.63282 h -4.13282 v 14.54102 h -6.77539 z"
           id="path31975" />
      </g>
      <g
         id="g31983"
         transform="translate(-2.6790031,74.154994)">
        <path
           style="color:#000000;-inkscape-font-specification:'Retro Gaming, Normal';fill:url(#linearGradient32159);stroke-width:0.5;-inkscape-stroke:none"
           d="m 278.70098,302.18061 c 0,-1.21094 0,-2.42188 0,-3.63282 1.21419,0 2.42838,0 3.64257,0 0,-4.85026 0,-9.70052 0,-14.55078 -1.21419,0 -2.42838,0 -3.64257,0 0,-1.21093 0,-2.42187 0,-3.6328 -2.42188,0 -4.84375,0 -7.26563,0 0,7.27213 0,14.54427 0,21.8164 0,0 7.26563,0 7.26563,0 z m -14.54102,3.63281 c 0,-9.69401 0,-19.38802 0,-29.08202 6.0612,0 12.12239,0 18.18359,0 0,1.21093 0,2.42187 0,3.63281 0,0 3.63282,0 3.63282,0 0,1.21093 0,2.42187 0,3.6328 0,0 3.63281,0 3.63281,0 0,4.85026 0,9.70052 0,14.55078 0,0 -3.63281,0 -3.63281,0 0,1.21094 0,2.42188 0,3.63282 0,0 -3.63282,0 -3.63282,0 0,1.21094 0,2.42188 0,3.63281 -6.0612,0 -12.1224,0 -18.18359,0 z"
           id="path31979" />
        <path
           style="color:#000000;-inkscape-font-specification:'Retro Gaming, Normal';fill:#c8d3ea;stroke:#ffffff;stroke-width:1.37953;stroke-miterlimit:4;stroke-dasharray:none;stroke-opacity:1"
           d="m 263.91016,276.48047 v 29.58203 h 0.25 18.43359 v -3.63281 h 3.63281 v -3.63282 h 3.63281 v -15.05078 h -3.63281 v -3.63281 h -3.63281 v -3.63281 z m 0.5,0.5 h 17.68359 v 3.63281 h 3.63281 v 3.63281 h 3.63281 v 14.05078 h -3.63281 v 3.63282 h -3.63281 v 3.63281 h -17.68359 z m 6.77539,3.13281 v 22.31641 h 7.76562 v -0.25 -3.38282 h 3.64258 v -15.05078 h -3.64258 v -3.63281 z m 0.5,0.5 h 6.76562 v 3.63281 h 3.64258 v 14.05078 h -3.64258 v 3.63282 h -6.76562 z"
           id="path31981" />
      </g>
      <g
         id="g31989"
         transform="translate(-2.6790031,74.154994)">
        <path
           style="color:#000000;-inkscape-font-specification:'Retro Gaming, Normal';fill:url(#linearGradient32157);stroke-width:0.5;-inkscape-stroke:none"
           d="m 295.06816,305.81342 c 0,-9.69401 0,-19.38802 0,-29.08202 8.48307,0 16.96615,0 25.44922,0 0,1.21093 0,2.42187 0,3.63281 0,0 -18.17383,0 -18.17383,0 0,2.42512 0,4.85025 0,7.27538 0,0 10.90821,0 10.90821,0 0,1.21094 0,2.42188 0,3.63281 0,0 -10.90821,0 -10.90821,0 0,3.63607 0,7.27214 0,10.90821 0,0 18.17383,0 18.17383,0 0,1.21094 0,2.42188 0,3.63281 10e-6,0 -25.44923,0 -25.44922,0 z"
           id="path31985" />
        <path
           style="color:#000000;-inkscape-font-specification:'Retro Gaming, Normal';fill:#c8d3ea;stroke:#ffffff;stroke-width:1.37953;stroke-miterlimit:4;stroke-dasharray:none;stroke-opacity:1"
           d="m 294.81836,276.48047 v 29.58203 h 0.25 25.69922 v -4.13281 h -18.17383 v -10.40821 h 10.9082 v -4.13281 h -10.9082 v -6.77539 h 18.17383 v -4.13281 z m 0.5,0.5 h 24.94922 v 3.13281 h -18.17383 v 7.77539 h 10.9082 v 3.13281 h -10.9082 v 11.40821 h 18.17383 v 3.13281 h -24.94922 z"
           id="path31987" />
      </g>
      <g
         id="g31995"
         transform="translate(-2.6790031,74.154994)">
        <path
           style="color:#000000;-inkscape-font-specification:'Retro Gaming, Normal';fill:url(#linearGradient32155);stroke-width:0.5;-inkscape-stroke:none"
           d="m 344.15996,287.63959 v -7.27539 h -10.9082 v 7.27539 z m -18.18359,18.17383 c 0,-9.69401 0,-19.38802 0,-29.08202 h 21.8164 v 3.6328 h 3.63281 v 7.27539 h -3.63281 v 3.63281 h 3.63281 v 11.06359 3.47743 h -7.26562 V 291.2724 h -10.9082 v 14.54102 z"
           id="path31991" />
        <path
           style="color:#000000;-inkscape-font-specification:'Retro Gaming, Normal';fill:#c8d3ea;stroke:#ffffff;stroke-width:1.37953;stroke-miterlimit:4;stroke-dasharray:none;stroke-opacity:1"
           d="m 325.72656,276.48047 v 29.58203 h 0.25 7.52539 v -14.54102 h 10.40821 v 14.54102 h 7.76562 v -3.72656 -11.31446 h -3.63281 v -3.13281 h 3.63281 v -7.77539 h -3.63281 v -3.63281 z m 0.5,0.5 h 21.31641 v 3.63281 h 3.63281 v 6.77539 h -3.63281 v 4.13281 h 3.63281 v 10.81446 3.22656 h -6.76562 v -14.54102 h -11.40821 v 14.54102 h -6.77539 z m 6.77539,3.13281 v 7.77539 h 11.40821 v -0.25 -7.52539 z m 0.5,0.5 h 10.40821 v 6.77539 h -10.40821 z"
           id="path31993" />
      </g>
      <path
         d="m 70.592285,376.3356 c 0,-1.21094 0,-2.42188 0,-3.63282 1.214193,0 2.428385,0 3.642578,0 0,-4.85026 0,-9.70052 0,-14.55078 0,0 -3.642578,0 -3.642578,0 0,-1.21093 0,-2.42187 0,-3.63281 -2.421875,0 -4.84375,0 -7.265625,0 0,7.27214 0,14.54428 0,21.81641 0,0 7.265625,0 7.265625,0 z m -14.541016,3.63281 c 0,-9.69401 0,-19.38802 0,-29.08202 6.061198,0 12.122396,0 18.183594,0 0,1.21093 0,2.42187 0,3.6328 1.210938,0 2.421875,1e-5 3.632813,1e-5 0,1.21093 0,2.42187 0,3.6328 1.210937,0 2.421875,0 3.632812,0 0,4.85026 0,9.70052 0,14.55078 -1.210937,0 -2.421875,0 -3.632812,0 0,1.21094 0,2.42188 0,3.63282 -1.210938,0 -2.421875,0 -3.632813,0 0,1.21094 0,2.42188 0,3.63281 -6.061198,0 -12.122396,0 -18.183594,0 z"
         style="fill:url(#linearGradient32153);fill-opacity:1;stroke:#000000;stroke-width:0.5;stroke-miterlimit:4;stroke-dasharray:none;stroke-opacity:1"
         id="path31997" />
      <path
         d="m 86.959458,379.96841 c 0,-1.21093 0,-2.42187 0,-3.63281 2.42513,0 4.85026,0 7.27539,0 0,-7.27213 0,-14.54427 0,-21.8164 -2.42513,0 -4.85026,0 -7.27539,0 0,-1.21094 0,-2.42188 0,-3.63281 0,0 21.816422,0 21.816422,0 0,1.21093 0,2.42187 0,3.63281 -2.42513,0 -4.85026,0 -7.27539,0 0,7.27213 0,14.54427 0,21.8164 2.42513,0 4.85026,0 7.27539,0 0,1.21094 0,2.42188 0,3.63281 -7.27214,0 -14.544288,0 -21.816422,0 z"
         style="fill:url(#linearGradient32151);fill-opacity:1;stroke:#000000;stroke-width:0.5;stroke-miterlimit:4;stroke-dasharray:none;stroke-opacity:1"
         id="path31999" />
      <path
         d="m 121.50049,379.96841 c 0,-1.21093 0,-2.42187 0,-3.63281 0,0 -3.64258,0 -3.64258,0 0,-1.21094 0,-2.42188 0,-3.63282 -1.21094,0 -2.42187,0 -3.63281,0 0,-4.85026 0,-9.70052 0,-14.55078 1.21094,0 2.42187,0 3.63281,0 0,-1.21093 0,-2.42187 0,-3.6328 0,0 3.64258,0 3.64258,0 0,-1.21094 0,-2.42188 0,-3.63281 4.84701,0 9.69401,0 14.54102,0 0,1.21093 0,2.42187 0,3.63281 1.21094,0 2.42187,0 3.63281,0 0,1.21093 0,2.42187 0,3.63281 -2.42188,0 -4.84375,0 -7.26563,0 0,-1.21094 0,-2.42188 0,-3.63281 -2.42513,0 -4.85026,0 -7.27539,0 0,1.21093 0,2.42187 0,3.6328 -1.21094,0 -2.42187,0 -3.63281,0 0,4.85026 0,9.70052 0,14.55078 1.21094,0 2.42187,0 3.63281,0 0,1.21094 0,2.42188 0,3.63282 2.42513,0 4.85026,0 7.27539,0 0,-3.0306 0,-6.0612 0,-9.0918 -2.42513,0 -4.85026,0 -7.27539,0 0,-1.21093 0,-2.42187 0,-3.63281 4.84701,0 9.69401,0 14.54102,0 0,5.45248 0,10.90495 0,16.35742 -6.05794,0 -12.11589,0 -18.17383,0 z"
         style="fill:url(#linearGradient32149);fill-opacity:1;stroke:#000000;stroke-width:0.5;stroke-miterlimit:4;stroke-dasharray:none;stroke-opacity:1"
         id="path32001" />
      <path
         d="m 145.1333,379.96841 c 0,-1.21093 0,-2.42187 0,-3.63281 2.42513,0 4.85026,0 7.27539,0 0,-7.27213 0,-14.54427 0,-21.8164 -2.42513,0 -4.85026,0 -7.27539,0 0,-1.21094 0,-2.42188 0,-3.63281 7.27214,0 14.54427,0 21.81641,0 0,1.21093 0,2.42187 0,3.63281 -2.42513,0 -4.85026,0 -7.27539,0 0,7.27213 0,14.54427 0,21.8164 2.42513,0 4.85026,0 7.27539,0 0,1.21094 0,2.42188 0,3.63281 -7.27214,0 -14.54427,0 -21.81641,0 z"
         style="fill:url(#linearGradient32147);fill-opacity:1;stroke:#000000;stroke-width:0.5;stroke-miterlimit:4;stroke-dasharray:none;stroke-opacity:1"
         id="path32003" />
      <path
         d="m 172.39893,379.96841 c 0,-9.69401 0,-19.38802 0,-29.08202 0,0 25.44922,0 25.44922,0 0,1.21093 0,2.42187 0,3.63281 -6.05794,0 -12.11589,0 -18.17383,0 0,2.42513 0,4.85026 0,7.27538 3.63607,0 7.27213,0 10.9082,0 0,1.21094 0,2.42188 0,3.63281 -3.63607,0 -7.27213,0 -10.9082,0 0,4.84701 0,9.69402 0,14.54102 0,0 -7.27539,0 -7.27539,0 z"
         style="fill:url(#linearGradient32145);fill-opacity:1;stroke:#000000;stroke-width:0.5;stroke-miterlimit:4;stroke-dasharray:none;stroke-opacity:1"
         id="path32005" />
      <path
         d="m 203.30713,379.96841 c 0,-1.21093 0,-2.42187 0,-3.63281 2.42513,0 4.85026,0 7.27539,0 0,-7.27213 0,-14.54427 0,-21.8164 -2.42513,0 -4.85026,0 -7.27539,0 0,-1.21094 0,-2.42188 0,-3.63281 0,0 21.81641,0 21.81641,0 0,1.21093 0,2.42187 0,3.63281 -2.42513,0 -4.85026,0 -7.27539,0 0,7.27213 0,14.54427 0,21.8164 2.42513,0 4.85026,0 7.27539,0 0,1.21094 0,2.42188 0,3.63281 -7.27214,0 -14.54428,0 -21.81641,0 z"
         style="fill:url(#linearGradient32143);fill-opacity:1;stroke:#000000;stroke-width:0.5;stroke-miterlimit:4;stroke-dasharray:none;stroke-opacity:1"
         id="path32007" />
      <path
         d="m 230.57276,379.96841 c 0,-9.69401 0,-19.38802 0,-29.08202 1.21094,0 2.42187,0 3.63281,0 0,1.21093 0,2.42187 0,3.63281 1.21419,0 2.42839,0 3.64258,0 0,1.21093 0,2.42187 0,3.63281 1.21094,0 2.42187,0 3.63281,0 0,1.21419 0,2.42838 0,3.64257 1.21094,0 2.42187,0 3.63281,0 0,1.21094 0,2.42188 0,3.63281 1.21419,0 2.42839,0 3.64258,0 0,-4.847 0,-9.694 0,-14.541 2.42188,0 4.84375,0 7.26563,0 0,9.694 0,19.38801 0,29.08202 0,0 -3.63282,0 -3.63282,0 0,-1.21093 0,-2.42187 0,-3.63281 -1.21094,0 -2.42188,0 -3.63281,0 0,-1.21094 0,-2.42188 0,-3.63282 -1.2142,0 -2.42839,0 -3.64258,0 0,-1.21419 0,-2.42838 0,-3.64258 -1.21094,0 -2.42187,0 -3.63281,0 0,-1.21093 0,-2.42187 0,-3.63281 -1.21094,0 -2.42187,0 -3.63281,0 0,4.84701 0,9.69402 0,14.54102 -2.42513,0 -4.85026,0 -7.27539,0 z"
         style="fill:url(#linearGradient32141);fill-opacity:1;stroke:#000000;stroke-width:0.5;stroke-miterlimit:4;stroke-dasharray:none;stroke-opacity:1"
         id="path32009" />
      <path
         d="m 276.02198,376.3356 c 0,-1.21094 0,-2.42188 0,-3.63282 1.21419,0 2.42838,0 3.64257,0 0,-4.85026 0,-9.70052 0,-14.55078 -1.21419,0 -2.42838,0 -3.64257,0 0,-1.21093 0,-2.42187 0,-3.6328 -2.42188,0 -4.84375,0 -7.26563,0 0,7.27213 0,14.54427 0,21.8164 0,0 7.26563,0 7.26563,0 z m -14.54102,3.63281 c 0,-9.69401 0,-19.38802 0,-29.08202 6.0612,0 12.12239,0 18.18359,0 0,1.21093 0,2.42187 0,3.63281 0,0 3.63282,0 3.63282,0 0,1.21093 0,2.42187 0,3.6328 0,0 3.63281,0 3.63281,0 0,4.85026 0,9.70052 0,14.55078 0,0 -3.63281,0 -3.63281,0 0,1.21094 0,2.42188 0,3.63282 0,0 -3.63282,0 -3.63282,0 0,1.21094 0,2.42188 0,3.63281 -6.0612,0 -12.1224,0 -18.18359,0 z"
         style="fill:url(#linearGradient32139);fill-opacity:1;stroke:#000000;stroke-width:0.5;stroke-miterlimit:4;stroke-dasharray:none;stroke-opacity:1"
         id="path32011" />
      <path
         d="m 292.38916,379.96841 c 0,-9.69401 0,-19.38802 0,-29.08202 8.48307,0 16.96615,0 25.44922,0 0,1.21093 0,2.42187 0,3.63281 0,0 -18.17383,0 -18.17383,0 0,2.42512 0,4.85025 0,7.27538 0,0 10.90821,0 10.90821,0 0,1.21094 0,2.42188 0,3.63281 0,0 -10.90821,0 -10.90821,0 0,3.63607 0,7.27214 0,10.90821 0,0 18.17383,0 18.17383,0 0,1.21094 0,2.42188 0,3.63281 1e-5,0 -25.44923,0 -25.44922,0 z"
         style="fill:url(#linearGradient32137);fill-opacity:1;stroke:#000000;stroke-width:0.5;stroke-miterlimit:4;stroke-dasharray:none;stroke-opacity:1"
         id="path32013" />
      <path
         d="m 341.48096,361.79458 v -7.27539 h -10.9082 v 7.27539 z m -18.18359,18.17383 c 0,-9.69401 0,-19.38802 0,-29.08202 h 21.8164 v 3.6328 h 3.63281 v 7.27539 h -3.63281 v 3.63281 h 3.63281 v 11.06359 3.47743 h -7.26562 v -14.54102 h -10.9082 v 14.54102 z"
         style="fill:url(#linearGradient32135);fill-opacity:1;stroke:#000000;stroke-width:0.5;stroke-miterlimit:4;stroke-dasharray:none;stroke-opacity:1"
         sodipodi:nodetypes="ccccccccccccccccccccc"
         id="path32015" />
    </g>
  </g>
</svg>
